<svg xmlns="http://www.w3.org/2000/svg" xmlns:xlink="http://www.w3.org/1999/xlink" width="156.423" height="78" viewBox="0 0 156.423 78">
  <defs>
    <style>
      .cls-1 {
        fill: none;
      }

      .cls-2 {
        fill: #fff;
        font-size: 24px;
        font-family: NirmalaUI, Nirmala UI;
      }

      .cls-3 {
        font-family: Roboto-Regular, Roboto;
      }

      .cls-4, .cls-5 {
        stroke: none;
      }

      .cls-5 {
        fill: #fff;
      }

      .cls-6 {
        filter: url(#Path_292);
      }
    </style>
    <filter id="Path_292" x="0" y="0" width="156.423" height="78" filterUnits="userSpaceOnUse">
      <feOffset dy="3" input="SourceAlpha"/>
      <feGaussianBlur stdDeviation="3" result="blur"/>
      <feFlood flood-opacity="0.161"/>
      <feComposite operator="in" in2="blur"/>
      <feComposite in="SourceGraphic"/>
    </filter>
  </defs>
  <g id="Group_49" data-name="Group 49" transform="translate(8.5 6)">
    <g class="cls-6" transform="matrix(1, 0, 0, 1, -8.5, -6)">
      <g id="Path_292-2" data-name="Path 292" class="cls-1" transform="translate(9 6)">
        <path class="cls-4" d="M11.745,0H126.678c6.487,0,11.745,6.268,11.745,14V46c0,7.732-5.258,14-11.745,14H11.745C5.258,60,0,53.732,0,46V14C0,6.268,5.258,0,11.745,0Z"/>
        <path class="cls-5" d="M 11.74497222900391 1 C 5.820175170898438 1 0.9999847412109375 6.831783294677734 0.9999847412109375 14 L 0.9999847412109375 46 C 0.9999847412109375 53.16821670532227 5.820175170898438 59 11.74497222900391 59 L 126.6778793334961 59 C 132.6026763916016 59 137.4228515625 53.16821670532227 137.4228515625 46 L 137.4228515625 14 C 137.4228515625 6.831783294677734 132.6026763916016 1 126.6778793334961 1 L 11.74497222900391 1 M 11.74497222900391 0 L 126.6778793334961 0 C 133.1644592285156 0 138.4228515625 6.268016815185547 138.4228515625 14 L 138.4228515625 46 C 138.4228515625 53.73198318481445 133.1644592285156 60 126.6778793334961 60 L 11.74497222900391 60 C 5.258407592773438 60 -1.52587890625e-05 53.73198318481445 -1.52587890625e-05 46 L -1.52587890625e-05 14 C -1.52587890625e-05 6.268016815185547 5.258407592773438 0 11.74497222900391 0 Z"/>
      </g>
    </g>
    <text id="जारी_रखें" data-name="जारी रखें" class="cls-2" transform="translate(25.5 40)"><tspan x="0" y="0">जारी</tspan><tspan class="cls-3" y="0"> </tspan><tspan y="0">रखें</tspan></text>
  </g>
</svg>
